<svg xmlns="http://www.w3.org/2000/svg" xmlns:xlink="http://www.w3.org/1999/xlink" xmlns:lucid="lucid" width="1740" height="1342"><g transform="translate(-100.00000000000001 1220)" lucid:page-tab-id="0_0"><path d="M555.9-217.2a6 6 0 0 1 6-6h103a6 6 0 0 1 6 6v8a14.48 14.48 0 0 1-4.25 10.24l-1.5 1.52a14.48 14.48 0 0 1-10.25 4.24h-93a6 6 0 0 1-6-6z" fill="#fff"/><path d="M670.9-223.2v20l-10 10h-105" stroke="#3a414a" fill="none"/><path d="M555.9-217.2a6 6 0 0 1 6-6H1814a6 6 0 0 1 6 6V61.2a6 6 0 0 1-6 6H561.9a6 6 0 0 1-6-6z" stroke="#3a414a" fill="none"/><use xlink:href="#a" transform="matrix(1,0,0,1,563.8974358974359,-223.20000000000002) translate(0 18.6)"/><path d="M1384.1-116.7h261.54v77.4H1384.1z" fill="none"/><use xlink:href="#b" transform="matrix(1,0,0,1,1384.1025641025642,-116.70156809774187) translate(62.51234567901234 43.44444444444444)"/><use xlink:href="#c" transform="matrix(1,0,0,1,1384.1025641025642,-116.70156809774187) translate(99.54938271604938 43.44444444444444)"/><path d="M693.93-408h668.38v79.2H693.94z" fill="none"/><use xlink:href="#d" transform="matrix(1,0,0,1,693.931623931624,-408) translate(57.46296296296293 31.111111111111114)"/><use xlink:href="#e" transform="matrix(1,0,0,1,693.931623931624,-408) translate(82.15432098765429 31.111111111111114)"/><use xlink:href="#f" transform="matrix(1,0,0,1,693.931623931624,-408) translate(160.98148148148144 31.111111111111114)"/><use xlink:href="#g" transform="matrix(1,0,0,1,693.931623931624,-408) translate(294.12962962962956 31.111111111111114)"/><use xlink:href="#h" transform="matrix(1,0,0,1,693.931623931624,-408) translate(354.62345679012344 31.111111111111114)"/><use xlink:href="#i" transform="matrix(1,0,0,1,693.931623931624,-408) translate(482.0925925925926 31.111111111111114)"/><use xlink:href="#j" transform="matrix(1,0,0,1,693.931623931624,-408) translate(539.9938271604938 31.111111111111114)"/><use xlink:href="#k" transform="matrix(1,0,0,1,693.931623931624,-408) translate(574.5 31.111111111111114)"/><use xlink:href="#h" transform="matrix(1,0,0,1,693.931623931624,-408) translate(217.1543209876543 57.77777777777778)"/><use xlink:href="#l" transform="matrix(1,0,0,1,693.931623931624,-408) translate(344.62345679012344 57.77777777777778)"/><path d="M228.97-683.66H627.1v79.2H228.96z" fill="none"/><use xlink:href="#m" transform="matrix(1,0,0,1,228.97435897435898,-683.661732283465) translate(59.43827160493828 44.44444444444444)"/><use xlink:href="#n" transform="matrix(1,0,0,1,228.97435897435898,-683.661732283465) translate(84.12962962962963 44.44444444444444)"/><use xlink:href="#o" transform="matrix(1,0,0,1,228.97435897435898,-683.661732283465) translate(213.69753086419755 44.44444444444444)"/><use xlink:href="#p" transform="matrix(1,0,0,1,228.97435897435898,-683.661732283465) translate(256.9074074074074 44.44444444444444)"/><path d="M621.28-355.2h370.5v79.2H621.3z" fill="none"/><use xlink:href="#q" transform="matrix(1,0,0,1,621.2820512820515,-355.19999999999976) translate(59.60493827160494 44.44444444444444)"/><use xlink:href="#r" transform="matrix(1,0,0,1,621.2820512820515,-355.19999999999976) translate(84.29629629629629 44.44444444444444)"/><use xlink:href="#s" transform="matrix(1,0,0,1,621.2820512820515,-355.19999999999976) translate(112.62962962962962 44.44444444444444)"/><use xlink:href="#t" transform="matrix(1,0,0,1,621.2820512820515,-355.19999999999976) translate(179.2962962962963 44.44444444444444)"/><use xlink:href="#u" transform="matrix(1,0,0,1,621.2820512820515,-355.19999999999976) translate(257.0740740740741 44.44444444444444)"/><path d="M664.87-962.4h457.7v79.2h-457.7z" fill="none"/><use xlink:href="#v" transform="matrix(1,0,0,1,664.8717948717949,-962.4) translate(33.8456790123457 44.44444444444444)"/><use xlink:href="#w" transform="matrix(1,0,0,1,664.8717948717949,-962.4) translate(58.53703703703705 44.44444444444444)"/><use xlink:href="#x" transform="matrix(1,0,0,1,664.8717948717949,-962.4) translate(165.69753086419755 44.44444444444444)"/><use xlink:href="#y" transform="matrix(1,0,0,1,664.8717948717949,-962.4) translate(245.8827160493827 44.44444444444444)"/><use xlink:href="#z" transform="matrix(1,0,0,1,664.8717948717949,-962.4) translate(265.0185185185185 44.44444444444444)"/><path d="M272.56-962.4H534.1v79.2H272.56z" fill="none"/><use xlink:href="#A" transform="matrix(1,0,0,1,272.5641025641025,-962.4) translate(67.54320987654322 44.44444444444444)"/><use xlink:href="#B" transform="matrix(1,0,0,1,272.5641025641025,-962.4) translate(140.19753086419752 44.44444444444444)"/><path d="M664.87-196.8h428.36V-78H664.87z" fill="none"/><use xlink:href="#C" transform="matrix(1,0,0,1,664.8717948717949,-196.7999999999999) translate(19.56172839506172 63.94444444444444)"/><use xlink:href="#D" transform="matrix(1,0,0,1,664.8717948717949,-196.7999999999999) translate(44.253086419753075 63.94444444444444)"/><use xlink:href="#E" transform="matrix(1,0,0,1,664.8717948717949,-196.7999999999999) translate(133.08024691358023 63.94444444444444)"/><use xlink:href="#F" transform="matrix(1,0,0,1,664.8717948717949,-196.7999999999999) translate(182.4012345679012 63.94444444444444)"/><use xlink:href="#G" transform="matrix(1,0,0,1,664.8717948717949,-196.7999999999999) translate(231.78395061728392 63.94444444444444)"/><use xlink:href="#t" transform="matrix(1,0,0,1,664.8717948717949,-196.7999999999999) translate(277.3395061728395 63.94444444444444)"/><use xlink:href="#u" transform="matrix(1,0,0,1,664.8717948717949,-196.7999999999999) translate(355.11728395061726 63.94444444444444)"/><path d="M693.93-592.8h668.38v79.2H693.94z" fill="none"/><use xlink:href="#H" transform="matrix(1,0,0,1,693.931623931624,-592.8000000000001) translate(57.51419753086424 45.33333333333333)"/><use xlink:href="#I" transform="matrix(1,0,0,1,693.931623931624,-592.8000000000001) translate(89.612962962963 45.33333333333333)"/><use xlink:href="#J" transform="matrix(1,0,0,1,693.931623931624,-592.8000000000001) translate(201.57962962962966 45.33333333333333)"/><use xlink:href="#K" transform="matrix(1,0,0,1,693.931623931624,-592.8000000000001) translate(332.06481481481484 45.33333333333333)"/><use xlink:href="#L" transform="matrix(1,0,0,1,693.931623931624,-592.8000000000001) translate(391.3487654320988 45.33333333333333)"/><use xlink:href="#M" transform="matrix(1,0,0,1,693.931623931624,-592.8000000000001) translate(419.11543209876544 45.33333333333333)"/><use xlink:href="#N" transform="matrix(1,0,0,1,693.931623931624,-592.8000000000001) translate(484.44876543209875 45.33333333333333)"/><use xlink:href="#O" transform="matrix(1,0,0,1,693.931623931624,-592.8000000000001) translate(558.2512345679013 45.33333333333333)"/><path d="M730.26-777.6h441.7v79.2h-441.7z" fill="none"/><use xlink:href="#P" transform="matrix(1,0,0,1,730.2564102564104,-777.6000000000004) translate(24.395061728395063 44.44444444444444)"/><use xlink:href="#Q" transform="matrix(1,0,0,1,730.2564102564104,-777.6000000000004) translate(49.08641975308642 44.44444444444444)"/><use xlink:href="#R" transform="matrix(1,0,0,1,730.2564102564104,-777.6000000000004) translate(137.79012345679013 44.44444444444444)"/><use xlink:href="#S" transform="matrix(1,0,0,1,730.2564102564104,-777.6000000000004) translate(162.48148148148147 44.44444444444444)"/><use xlink:href="#T" transform="matrix(1,0,0,1,730.2564102564104,-777.6000000000004) translate(215.44444444444443 44.44444444444444)"/><use xlink:href="#f" transform="matrix(1,0,0,1,730.2564102564104,-777.6000000000004) translate(227.7901234567901 44.44444444444444)"/><use xlink:href="#U" transform="matrix(1,0,0,1,730.2564102564104,-777.6000000000004) translate(360.9382716049382 44.44444444444444)"/><path d="M120-1194a6 6 0 0 1 6-6h162.36a6 6 0 0 1 6 6v146.4a6 6 0 0 1-6 6H126a6 6 0 0 1-6-6z" stroke="#3a414a" fill="#fff"/><use xlink:href="#V" transform="matrix(1,0,0,1,125.00000000000001,-1195) translate(50.44135802469136 78.98611111111111)"/><path d="M534.1-1194a6 6 0 0 1 6-6h162.36a6 6 0 0 1 6 6v146.4a6 6 0 0 1-6 6H540.1a6 6 0 0 1-6-6z" stroke="#3a414a" fill="#fff"/><use xlink:href="#W" transform="matrix(1,0,0,1,539.1025641025641,-1195) translate(20.388888888888886 78.98611111111111)"/><use xlink:href="#X" transform="matrix(1,0,0,1,539.1025641025641,-1195) translate(88.67901234567901 78.98611111111111)"/><path d="M1296.92-1194a6 6 0 0 1 6-6h162.36a6 6 0 0 1 6 6v146.4a6 6 0 0 1-6 6h-162.36a6 6 0 0 1-6-6z" stroke="#3a414a" fill="#fff"/><use xlink:href="#Y" transform="matrix(1,0,0,1,1301.9230769230771,-1195) translate(44.870370370370374 47.83333333333333)"/><use xlink:href="#Z" transform="matrix(1,0,0,1,1301.9230769230771,-1195) translate(-3.1296296296296333 79.83333333333333)"/><use xlink:href="#aa" transform="matrix(1,0,0,1,1301.9230769230771,-1195) translate(42.50000000000001 111.83333333333333)"/><path d="M1602.05-1194a6 6 0 0 1 6-6h162.36a6 6 0 0 1 6 6v146.4a6 6 0 0 1-6 6h-162.35a6 6 0 0 1-6-6z" stroke="#3a414a" fill="#fff"/><use xlink:href="#ab" transform="matrix(1,0,0,1,1607.0512820512822,-1195) translate(60.31481481481482 81.86458333333333)"/><path d="M207.18-1040.6v9.94m0 9.95v19.88m0 9.94v19.9m0 9.94v19.9m0 9.93v19.88m0 9.95v19.9m0 9.93v19.9m0 9.93v19.88m0 9.95v19.9m0 9.93v19.9m0 9.94v19.9m0 9.93v19.9m0 9.94v19.88m0 9.95v19.9m0 9.93v19.9m0 9.94v19.9m0 9.93v19.9m0 9.94v19.9m0 9.93v19.9m0 9.94v19.9m0 9.94v19.9m0 9.93v19.9m0 9.94v19.9m0 9.94v19.9m0 9.94v19.9m0 9.93v19.9m0 9.94v19.9m0 9.94v19.9m0 9.93v19.9m0 9.95v19.9m0 9.93v19.9m0 9.94v19.9m0 9.93v19.9m0 9.93v19.9m0 9.94v19.9m0 9.93v19.9m0 9.94v19.88m0 9.94v19.9m0 9.94v9.94" stroke="#3a414a" fill="none"/><path d="M207.68-1040.6h-1v-.5h1z" stroke="#3a414a" stroke-width=".05" fill="#3a414a"/><path d="M207.18 93.1v.5M621.28-1040.6v9.9m0 9.93v19.83m0 9.92v19.83m0 9.92v19.83m0 9.92v19.83m0 9.92v19.83m0 9.9v19.84m0 9.9v19.84m0 9.9v19.84m0 9.92v19.83m0 9.92v19.83m0 9.9v19.84m0 9.92v19.83m0 9.9v19.85m0 9.9v19.84m0 9.92v19.83m0 9.92v19.83m0 9.92V-525m0 9.9v19.85m0 9.9v19.84m0 9.9v19.84m0 9.9V-406m0 9.9v19.83m0 9.92v19.83m0 9.9v19.84m0 9.92v19.83m0 9.9v19.84m0 9.93v19.83m0 9.92v19.83m0 9.92v19.83m0 9.92v19.83m0 9.92v19.83m0 9.9v19.84m0 9.9v19.84m0 9.9v19.84m0 9.92v19.83m0 9.92v19.83m0 9.9v19.84m0 9.92v19.83m0 9.9v9.93" stroke="#3a414a" fill="none"/><path d="M621.78-1040.6h-1v-.5h1z" stroke="#3a414a" stroke-width=".05" fill="#3a414a"/><path d="M621.28 119.5v.5M1689.23-1040.6v9.94m0 9.95v19.88m0 9.94v19.9m0 9.94v19.9m0 9.93v19.88m0 9.95v19.9m0 9.93v19.9m0 9.93v19.88m0 9.95v19.9m0 9.93v19.9m0 9.94v19.9m0 9.93v19.9m0 9.94v19.88m0 9.95v19.9m0 9.93v19.9m0 9.94v19.9m0 9.93v19.9m0 9.94v19.9m0 9.93v19.9m0 9.94v19.9m0 9.94v19.9m0 9.93v19.9m0 9.94v19.9m0 9.94v19.9m0 9.94v19.9m0 9.93v19.9m0 9.94v19.9m0 9.94v19.9m0 9.93v19.9m0 9.95v19.9m0 9.93v19.9m0 9.94v19.9m0 9.93v19.9m0 9.93v19.9m0 9.94v19.9m0 9.93v19.9m0 9.94v19.88m0 9.94v19.9m0 9.94v9.94" stroke="#3a414a" fill="none"/><path d="M1689.73-1040.6h-1v-.5h1z" stroke="#3a414a" stroke-width=".05" fill="#3a414a"/><path d="M1689.23 93.1v.5M1384.1-1040.6v9.94m0 9.95v19.88m0 9.94v19.9m0 9.94v19.9m0 9.93v19.88m0 9.95v19.9m0 9.93v19.9m0 9.93v19.88m0 9.95v19.9m0 9.93v19.9m0 9.94v19.9m0 9.93v19.9m0 9.94v19.88m0 9.95v19.9m0 9.93v19.9m0 9.94v19.9m0 9.93v19.9m0 9.94v19.9m0 9.93v19.9m0 9.94v19.9m0 9.94v19.9m0 9.93v19.9m0 9.94v19.9m0 9.94v19.9m0 9.94v19.9m0 9.93v19.9m0 9.94v19.9m0 9.94v19.9m0 9.93v19.9m0 9.95v19.9m0 9.93v19.9m0 9.94v19.9m0 9.93v19.9m0 9.93v19.9m0 9.94v19.9m0 9.93v19.9m0 9.94v19.88m0 9.94v19.9m0 9.94v9.94" stroke="#3a414a" fill="none"/><path d="M1384.6-1040.6h-1v-.5h1z" stroke="#3a414a" stroke-width=".05" fill="#3a414a"/><path d="M1384.1 93.1v.5" stroke="#3a414a" fill="none"/><path d="M185.38-916.8a6 6 0 0 1 6-6h31.6a6 6 0 0 1 6 6v67.2a6 6 0 0 1-6 6h-31.6a6 6 0 0 1-6-6zM599.5-956.4a6 6 0 0 1 6-6h31.58a6 6 0 0 1 6 6V-810a6 6 0 0 1-6 6h-31.6a6 6 0 0 1-6-6zM1362.3-956.4a6 6 0 0 1 6-6h31.6a6 6 0 0 1 6 6v252a6 6 0 0 1-6 6h-31.6a6 6 0 0 1-6-6z" stroke="#3a414a" fill="#fff"/><path d="M229.97-883.2H582.6" stroke="#3a414a" fill="none"/><path d="M230-882.7h-.53v-1h.52z" stroke="#3a414a" stroke-width=".05" fill="#3a414a"/><path d="M597.37-883.2l-14.27 4.63v-9.26z" stroke="#3a414a" fill="#3a414a"/><path d="M644.08-883.2h358.56a.05.05 0 0 1 .05.05.05.05 0 0 0 .04.06h342.68" stroke="#3a414a" fill="none"/><path d="M644.1-882.7h-.52v-1h.5z" stroke="#3a414a" stroke-width=".05" fill="#3a414a"/><path d="M1360.2-883.1l-14.28 4.64v-9.27z" stroke="#3a414a" fill="#3a414a"/><path d="M1361.3-719.96H795.8a.16.16 0 0 0-.16.16.16.16 0 0 1-.16.15H245.86" stroke="#3a414a" fill="none"/><path d="M1361.8-719.46h-.5v-1h.5z" stroke="#3a414a" stroke-width=".05" fill="#3a414a"/><path d="M231.1-719.65l14.26-4.63v9.27z" stroke="#3a414a" fill="#3a414a"/><path d="M185.38-745.2a6 6 0 0 1 6-6h31.6a6 6 0 0 1 6 6v146.4a6 6 0 0 1-6 6h-31.6a6 6 0 0 1-6-6zM1362.3-652.96a6 6 0 0 1 6-6h31.6a6 6 0 0 1 6 6v384a6 6 0 0 1-6 6h-31.6a6 6 0 0 1-6-6z" stroke="#3a414a" fill="#fff"/><path d="M229.97-609h565.46a.2.2 0 0 1 .2.22.2.2 0 0 0 .22.2h549.57" stroke="#3a414a" fill="none"/><path d="M230-608.5h-.53v-1h.52z" stroke="#3a414a" stroke-width=".05" fill="#3a414a"/><path d="M1360.2-608.57l-14.28 4.64v-9.27z" stroke="#3a414a" fill="#3a414a"/><path d="M599.5-560.4a6 6 0 0 1 6-6h31.58a6 6 0 0 1 6 6v304.8a6 6 0 0 1-6 6h-31.6a6 6 0 0 1-6-6z" stroke="#3a414a" fill="#fff"/><path d="M1361.3-514.4h-357.77a.84.84 0 0 0-.84.83.84.84 0 0 1-.84.84h-341.9" stroke="#3a414a" fill="none"/><path d="M1361.8-513.9h-.5v-1h.5z" stroke="#3a414a" stroke-width=".05" fill="#3a414a"/><path d="M645.2-512.73l14.26-4.64v9.27z" stroke="#3a414a" fill="#3a414a"/><path d="M644.08-431.06h358.56a.05.05 0 0 0 .05-.05.05.05 0 0 1 .04-.06h342.68" stroke="#3a414a" fill="none"/><path d="M644.1-430.56h-.52v-1h.5z" stroke="#3a414a" stroke-width=".05" fill="#3a414a"/><path d="M1360.2-431.16l-14.28 4.63v-9.27z" stroke="#3a414a" fill="#3a414a"/><path d="M664.87-497.94h486.75V-408H664.87z" fill="#fff" fill-opacity="0"/><g><use xlink:href="#ac" transform="matrix(1,0,0,1,669.8717948717949,-492.93599999999964) translate(0 17.77777777777778)"/><use xlink:href="#ad" transform="matrix(1,0,0,1,669.8717948717949,-492.93599999999964) translate(24.691358024691358 17.77777777777778)"/><use xlink:href="#K" transform="matrix(1,0,0,1,669.8717948717949,-492.93599999999964) translate(157.59629629629632 17.77777777777778)"/><use xlink:href="#ae" transform="matrix(1,0,0,1,669.8717948717949,-492.93599999999964) translate(216.88024691358027 17.77777777777778)"/><use xlink:href="#af" transform="matrix(1,0,0,1,669.8717948717949,-492.93599999999964) translate(278.4024691358025 17.77777777777778)"/><use xlink:href="#ae" transform="matrix(1,0,0,1,669.8717948717949,-492.93599999999964) translate(312.2185185185186 17.77777777777778)"/><use xlink:href="#ag" transform="matrix(1,0,0,1,669.8717948717949,-492.93599999999964) translate(373.7407407407408 17.77777777777778)"/></g><path d="M1406.9-392.52h33.5a6 6 0 0 1 6 6v106.42a6 6 0 0 1-6 6h-17.62" stroke="#3a414a" fill="none"/><path d="M1406.9-392.02h-.5v-1h.5z" stroke="#3a414a" stroke-width=".05" fill="#3a414a"/><path d="M1408.02-274.1l14.26-4.63v9.27z" stroke="#3a414a" fill="#3a414a"/><path d="M1361.3-278.35h-358.55a.05.05 0 0 0-.06.05.05.05 0 0 1-.06.06H659.96" stroke="#3a414a" fill="none"/><path d="M1361.8-277.85h-.5v-1h.5z" stroke="#3a414a" stroke-width=".05" fill="#3a414a"/><path d="M645.2-278.24l14.26-4.64v9.27z" stroke="#3a414a" fill="#3a414a"/><path d="M599.5-149.4a6 6 0 0 1 6-6h31.58a6 6 0 0 1 6 6V-6.6a6 6 0 0 1-6 6h-31.6a6 6 0 0 1-6-6zM1667.44-149.4a6 6 0 0 1 6-6h31.6a6 6 0 0 1 6 6V-6.6a6 6 0 0 1-6 6h-31.6a6 6 0 0 1-6-6z" stroke="#3a414a" fill="#fff"/><path d="M644.08-109.11l511.18-.02h495.3" stroke="#3a414a" fill="none"/><path d="M644.1-108.61l-.52-.02v-1h.5z" stroke="#3a414a" stroke-width=".05" fill="#3a414a"/><path d="M1665.32-109.11l-14.27 4.62v-9.27z" stroke="#3a414a" fill="#3a414a"/><path d="M1666.44-35.3H659.96" stroke="#3a414a" fill="none"/><path d="M1666.94-34.8h-.52v-1h.52z" stroke="#3a414a" stroke-width=".05" fill="#3a414a"/><path d="M645.2-35.3l14.26-4.64v9.27z" stroke="#3a414a" fill="#3a414a"/><path d="M693.93-223.2h322.62v48.4H693.93z" stroke="#000" fill="#fff" fill-opacity="0"/><g><use xlink:href="#ah" transform="matrix(1,0,0,1,698.9316239316239,-218.20000000000022) translate(0 17.77777777777778)"/><use xlink:href="#ai" transform="matrix(1,0,0,1,698.9316239316239,-218.20000000000022) translate(65.30864197530865 17.77777777777778)"/><use xlink:href="#aj" transform="matrix(1,0,0,1,698.9316239316239,-218.20000000000022) translate(145.55555555555554 17.77777777777778)"/><use xlink:href="#ak" transform="matrix(1,0,0,1,698.9316239316239,-218.20000000000022) translate(210.80246913580245 17.77777777777778)"/><use xlink:href="#al" transform="matrix(1,0,0,1,698.9316239316239,-218.20000000000022) translate(235.49382716049382 17.77777777777778)"/></g><defs><path d="M30 0v-248h33v221h125V0H30" id="am"/><path d="M100-194c62-1 85 37 85 99 1 63-27 99-86 99S16-35 15-95c0-66 28-99 85-99zM99-20c44 1 53-31 53-75 0-43-8-75-51-75s-53 32-53 75 10 74 51 75" id="an"/><path d="M115-194c55 1 70 41 70 98S169 2 115 4C84 4 66-9 55-30l1 105H24l-1-265h31l2 30c10-21 28-34 59-34zm-8 174c40 0 45-34 45-75s-6-73-45-74c-42 0-51 32-51 76 0 43 10 73 51 73" id="ao"/><g id="a"><use transform="matrix(0.05,0,0,0.05,0,0)" xlink:href="#am"/><use transform="matrix(0.05,0,0,0.05,10,0)" xlink:href="#an"/><use transform="matrix(0.05,0,0,0.05,20,0)" xlink:href="#an"/><use transform="matrix(0.05,0,0,0.05,30,0)" xlink:href="#ao"/></g><path d="M27 0v-27h64v-190l-56 39v-29l58-41h29v221h61V0H27" id="ap"/><path d="M101-251c68 0 85 55 85 127S166 4 100 4C33 4 14-52 14-124c0-73 17-127 87-127zm-1 229c47 0 54-49 54-102s-4-102-53-102c-51 0-55 48-55 102 0 53 5 102 54 102" id="aq"/><path d="M33 0v-38h34V0H33" id="ar"/><g id="b"><use transform="matrix(0.06172839506172839,0,0,0.06172839506172839,0,0)" xlink:href="#ap"/><use transform="matrix(0.06172839506172839,0,0,0.06172839506172839,12.345679012345679,0)" xlink:href="#aq"/><use transform="matrix(0.06172839506172839,0,0,0.06172839506172839,24.691358024691358,0)" xlink:href="#ar"/></g><path d="M233-177c-1 41-23 64-60 70L243 0h-38l-65-103H63V0H30v-248c88 3 205-21 203 71zM63-129c60-2 137 13 137-47 0-61-80-42-137-45v92" id="as"/><path d="M100-194c63 0 86 42 84 106H49c0 40 14 67 53 68 26 1 43-12 49-29l28 8c-11 28-37 45-77 45C44 4 14-33 15-96c1-61 26-98 85-98zm52 81c6-60-76-77-97-28-3 7-6 17-6 28h103" id="at"/><path d="M135-143c-3-34-86-38-87 0 15 53 115 12 119 90S17 21 10-45l28-5c4 36 97 45 98 0-10-56-113-15-118-90-4-57 82-63 122-42 12 7 21 19 24 35" id="au"/><path d="M117-194c89-4 53 116 60 194h-32v-121c0-31-8-49-39-48C34-167 62-67 57 0H25l-1-190h30c1 10-1 24 2 32 11-22 29-35 61-36" id="av"/><g id="c"><use transform="matrix(0.06172839506172839,0,0,0.06172839506172839,0,0)" xlink:href="#as"/><use transform="matrix(0.06172839506172839,0,0,0.06172839506172839,15.987654320987653,0)" xlink:href="#at"/><use transform="matrix(0.06172839506172839,0,0,0.06172839506172839,28.333333333333332,0)" xlink:href="#au"/><use transform="matrix(0.06172839506172839,0,0,0.06172839506172839,39.44444444444444,0)" xlink:href="#ao"/><use transform="matrix(0.06172839506172839,0,0,0.06172839506172839,51.79012345679012,0)" xlink:href="#an"/><use transform="matrix(0.06172839506172839,0,0,0.06172839506172839,64.1358024691358,0)" xlink:href="#av"/><use transform="matrix(0.06172839506172839,0,0,0.06172839506172839,76.48148148148148,0)" xlink:href="#au"/><use transform="matrix(0.06172839506172839,0,0,0.06172839506172839,87.5925925925926,0)" xlink:href="#at"/></g><path d="M64 0c3-98 48-159 88-221H18v-27h164v26C143-157 98-101 97 0H64" id="aw"/><g id="d"><use transform="matrix(0.06172839506172839,0,0,0.06172839506172839,0,0)" xlink:href="#aw"/><use transform="matrix(0.06172839506172839,0,0,0.06172839506172839,12.345679012345679,0)" xlink:href="#ar"/></g><path d="M137 0h-34L2-248h35l83 218 83-218h36" id="ax"/><path d="M114-163C36-179 61-72 57 0H25l-1-190h30c1 12-1 29 2 39 6-27 23-49 58-41v29" id="ay"/><path d="M24-231v-30h32v30H24zM24 0v-190h32V0H24" id="az"/><path d="M101-234c-31-9-42 10-38 44h38v23H63V0H32v-167H5v-23h27c-7-52 17-82 69-68v24" id="aA"/><g id="e"><use transform="matrix(0.06172839506172839,0,0,0.06172839506172839,0,0)" xlink:href="#ax"/><use transform="matrix(0.06172839506172839,0,0,0.06172839506172839,13.580246913580245,0)" xlink:href="#at"/><use transform="matrix(0.06172839506172839,0,0,0.06172839506172839,25.925925925925924,0)" xlink:href="#ay"/><use transform="matrix(0.06172839506172839,0,0,0.06172839506172839,33.2716049382716,0)" xlink:href="#az"/><use transform="matrix(0.06172839506172839,0,0,0.06172839506172839,38.148148148148145,0)" xlink:href="#aA"/><use transform="matrix(0.06172839506172839,0,0,0.06172839506172839,44.32098765432099,0)" xlink:href="#az"/><use transform="matrix(0.06172839506172839,0,0,0.06172839506172839,49.19753086419753,0)" xlink:href="#at"/><use transform="matrix(0.06172839506172839,0,0,0.06172839506172839,61.54320987654321,0)" xlink:href="#au"/></g><path d="M141-36C126-15 110 5 73 4 37 3 15-17 15-53c-1-64 63-63 125-63 3-35-9-54-41-54-24 1-41 7-42 31l-33-3c5-37 33-52 76-52 45 0 72 20 72 64v82c-1 20 7 32 28 27v20c-31 9-61-2-59-35zM48-53c0 20 12 33 32 33 41-3 63-29 60-74-43 2-92-5-92 41" id="aB"/><path d="M84 4C-5 8 30-112 23-190h32v120c0 31 7 50 39 49 72-2 45-101 50-169h31l1 190h-30c-1-10 1-25-2-33-11 22-28 36-60 37" id="aC"/><path d="M59-47c-2 24 18 29 38 22v24C64 9 27 4 27-40v-127H5v-23h24l9-43h21v43h35v23H59v120" id="aD"/><path d="M106-169C34-169 62-67 57 0H25v-261h32l-1 103c12-21 28-36 61-36 89 0 53 116 60 194h-32v-121c2-32-8-49-39-48" id="aE"/><path d="M9 0v-24l116-142H16v-24h144v24L44-24h123V0H9" id="aF"/><g id="f"><use transform="matrix(0.06172839506172839,0,0,0.06172839506172839,0,0)" xlink:href="#aB"/><use transform="matrix(0.06172839506172839,0,0,0.06172839506172839,12.345679012345679,0)" xlink:href="#aC"/><use transform="matrix(0.06172839506172839,0,0,0.06172839506172839,24.691358024691358,0)" xlink:href="#aD"/><use transform="matrix(0.06172839506172839,0,0,0.06172839506172839,30.864197530864196,0)" xlink:href="#aE"/><use transform="matrix(0.06172839506172839,0,0,0.06172839506172839,43.20987654320987,0)" xlink:href="#an"/><use transform="matrix(0.06172839506172839,0,0,0.06172839506172839,55.55555555555555,0)" xlink:href="#ay"/><use transform="matrix(0.06172839506172839,0,0,0.06172839506172839,62.90123456790123,0)" xlink:href="#az"/><use transform="matrix(0.06172839506172839,0,0,0.06172839506172839,67.77777777777777,0)" xlink:href="#aF"/><use transform="matrix(0.06172839506172839,0,0,0.06172839506172839,78.88888888888889,0)" xlink:href="#aB"/><use transform="matrix(0.06172839506172839,0,0,0.06172839506172839,91.23456790123457,0)" xlink:href="#aD"/><use transform="matrix(0.06172839506172839,0,0,0.06172839506172839,97.4074074074074,0)" xlink:href="#az"/><use transform="matrix(0.06172839506172839,0,0,0.06172839506172839,102.28395061728395,0)" xlink:href="#an"/><use transform="matrix(0.06172839506172839,0,0,0.06172839506172839,114.62962962962963,0)" xlink:href="#av"/></g><path d="M96-169c-40 0-48 33-48 73s9 75 48 75c24 0 41-14 43-38l32 2c-6 37-31 61-74 61-59 0-76-41-82-99-10-93 101-131 147-64 4 7 5 14 7 22l-32 3c-4-21-16-35-41-35" id="aG"/><path d="M85-194c31 0 48 13 60 33l-1-100h32l1 261h-30c-2-10 0-23-3-31C134-8 116 4 85 4 32 4 16-35 15-94c0-66 23-100 70-100zm9 24c-40 0-46 34-46 75 0 40 6 74 45 74 42 0 51-32 51-76 0-42-9-74-50-73" id="aH"/><path d="M68-38c1 34 0 65-14 84H32c9-13 17-26 17-46H33v-38h35" id="aI"/><g id="g"><use transform="matrix(0.06172839506172839,0,0,0.06172839506172839,0,0)" xlink:href="#aG"/><use transform="matrix(0.06172839506172839,0,0,0.06172839506172839,11.11111111111111,0)" xlink:href="#an"/><use transform="matrix(0.06172839506172839,0,0,0.06172839506172839,23.45679012345679,0)" xlink:href="#aH"/><use transform="matrix(0.06172839506172839,0,0,0.06172839506172839,35.80246913580247,0)" xlink:href="#at"/><use transform="matrix(0.06172839506172839,0,0,0.06172839506172839,48.148148148148145,0)" xlink:href="#aI"/></g><path d="M24 0v-261h32V0H24" id="aJ"/><path d="M47-170H22l-4-78h33" id="aK"/><g id="h"><use transform="matrix(0.06172839506172839,0,0,0.06172839506172839,0,0)" xlink:href="#aB"/><use transform="matrix(0.06172839506172839,0,0,0.06172839506172839,12.345679012345679,0)" xlink:href="#ao"/><use transform="matrix(0.06172839506172839,0,0,0.06172839506172839,24.691358024691358,0)" xlink:href="#ao"/><use transform="matrix(0.06172839506172839,0,0,0.06172839506172839,37.03703703703704,0)" xlink:href="#aJ"/><use transform="matrix(0.06172839506172839,0,0,0.06172839506172839,41.91358024691358,0)" xlink:href="#az"/><use transform="matrix(0.06172839506172839,0,0,0.06172839506172839,46.79012345679013,0)" xlink:href="#aG"/><use transform="matrix(0.06172839506172839,0,0,0.06172839506172839,57.90123456790124,0)" xlink:href="#aB"/><use transform="matrix(0.06172839506172839,0,0,0.06172839506172839,70.24691358024693,0)" xlink:href="#aD"/><use transform="matrix(0.06172839506172839,0,0,0.06172839506172839,76.41975308641976,0)" xlink:href="#az"/><use transform="matrix(0.06172839506172839,0,0,0.06172839506172839,81.2962962962963,0)" xlink:href="#an"/><use transform="matrix(0.06172839506172839,0,0,0.06172839506172839,93.64197530864199,0)" xlink:href="#av"/><use transform="matrix(0.06172839506172839,0,0,0.06172839506172839,105.98765432098767,0)" xlink:href="#aK"/><use transform="matrix(0.06172839506172839,0,0,0.06172839506172839,110.1851851851852,0)" xlink:href="#au"/></g><g id="i"><use transform="matrix(0.06172839506172839,0,0,0.06172839506172839,0,0)" xlink:href="#aG"/><use transform="matrix(0.06172839506172839,0,0,0.06172839506172839,11.11111111111111,0)" xlink:href="#aJ"/><use transform="matrix(0.06172839506172839,0,0,0.06172839506172839,15.987654320987653,0)" xlink:href="#az"/><use transform="matrix(0.06172839506172839,0,0,0.06172839506172839,20.864197530864196,0)" xlink:href="#at"/><use transform="matrix(0.06172839506172839,0,0,0.06172839506172839,33.20987654320987,0)" xlink:href="#av"/><use transform="matrix(0.06172839506172839,0,0,0.06172839506172839,45.55555555555555,0)" xlink:href="#aD"/></g><path d="M33 0v-248h34V0H33" id="aL"/><path d="M30-248c118-7 216 8 213 122C240-48 200 0 122 0H30v-248zM63-27c89 8 146-16 146-99s-60-101-146-95v194" id="aM"/><g id="j"><use transform="matrix(0.06172839506172839,0,0,0.06172839506172839,0,0)" xlink:href="#aL"/><use transform="matrix(0.06172839506172839,0,0,0.06172839506172839,6.172839506172839,0)" xlink:href="#aM"/><use transform="matrix(0.06172839506172839,0,0,0.06172839506172839,22.160493827160494,0)" xlink:href="#aI"/></g><g id="k"><use transform="matrix(0.06172839506172839,0,0,0.06172839506172839,0,0)" xlink:href="#aB"/><use transform="matrix(0.06172839506172839,0,0,0.06172839506172839,12.345679012345679,0)" xlink:href="#av"/><use transform="matrix(0.06172839506172839,0,0,0.06172839506172839,24.691358024691358,0)" xlink:href="#aH"/></g><g id="l"><use transform="matrix(0.06172839506172839,0,0,0.06172839506172839,0,0)" xlink:href="#aG"/><use transform="matrix(0.06172839506172839,0,0,0.06172839506172839,11.11111111111111,0)" xlink:href="#ay"/><use transform="matrix(0.06172839506172839,0,0,0.06172839506172839,18.45679012345679,0)" xlink:href="#at"/><use transform="matrix(0.06172839506172839,0,0,0.06172839506172839,30.80246913580247,0)" xlink:href="#aH"/><use transform="matrix(0.06172839506172839,0,0,0.06172839506172839,43.148148148148145,0)" xlink:href="#at"/><use transform="matrix(0.06172839506172839,0,0,0.06172839506172839,55.49382716049382,0)" xlink:href="#av"/><use transform="matrix(0.06172839506172839,0,0,0.06172839506172839,67.8395061728395,0)" xlink:href="#aD"/><use transform="matrix(0.06172839506172839,0,0,0.06172839506172839,74.01234567901234,0)" xlink:href="#az"/><use transform="matrix(0.06172839506172839,0,0,0.06172839506172839,78.88888888888889,0)" xlink:href="#aB"/><use transform="matrix(0.06172839506172839,0,0,0.06172839506172839,91.23456790123457,0)" xlink:href="#aJ"/><use transform="matrix(0.06172839506172839,0,0,0.06172839506172839,96.11111111111111,0)" xlink:href="#au"/></g><path d="M155-56V0h-30v-56H8v-25l114-167h33v167h35v25h-35zm-30-156c-27 46-58 90-88 131h88v-131" id="aN"/><g id="m"><use transform="matrix(0.06172839506172839,0,0,0.06172839506172839,0,0)" xlink:href="#aN"/><use transform="matrix(0.06172839506172839,0,0,0.06172839506172839,12.345679012345679,0)" xlink:href="#ar"/></g><path d="M205 0l-28-72H64L36 0H1l101-248h38L239 0h-34zm-38-99l-47-123c-12 45-31 82-46 123h93" id="aO"/><g id="n"><use transform="matrix(0.06172839506172839,0,0,0.06172839506172839,0,0)" xlink:href="#aO"/><use transform="matrix(0.06172839506172839,0,0,0.06172839506172839,14.814814814814813,0)" xlink:href="#aC"/><use transform="matrix(0.06172839506172839,0,0,0.06172839506172839,27.160493827160494,0)" xlink:href="#aD"/><use transform="matrix(0.06172839506172839,0,0,0.06172839506172839,33.333333333333336,0)" xlink:href="#aE"/><use transform="matrix(0.06172839506172839,0,0,0.06172839506172839,45.67901234567901,0)" xlink:href="#at"/><use transform="matrix(0.06172839506172839,0,0,0.06172839506172839,58.02469135802469,0)" xlink:href="#av"/><use transform="matrix(0.06172839506172839,0,0,0.06172839506172839,70.37037037037037,0)" xlink:href="#aD"/><use transform="matrix(0.06172839506172839,0,0,0.06172839506172839,76.5432098765432,0)" xlink:href="#az"/><use transform="matrix(0.06172839506172839,0,0,0.06172839506172839,81.41975308641975,0)" xlink:href="#aG"/><use transform="matrix(0.06172839506172839,0,0,0.06172839506172839,92.53086419753086,0)" xlink:href="#aB"/><use transform="matrix(0.06172839506172839,0,0,0.06172839506172839,104.87654320987654,0)" xlink:href="#aD"/><use transform="matrix(0.06172839506172839,0,0,0.06172839506172839,111.04938271604938,0)" xlink:href="#at"/></g><g id="o"><use transform="matrix(0.06172839506172839,0,0,0.06172839506172839,0,0)" xlink:href="#aB"/><use transform="matrix(0.06172839506172839,0,0,0.06172839506172839,12.345679012345679,0)" xlink:href="#av"/><use transform="matrix(0.06172839506172839,0,0,0.06172839506172839,24.691358024691358,0)" xlink:href="#aH"/></g><path d="M212-179c-10-28-35-45-73-45-59 0-87 40-87 99 0 60 29 101 89 101 43 0 62-24 78-52l27 14C228-24 195 4 139 4 59 4 22-46 18-125c-6-104 99-153 187-111 19 9 31 26 39 46" id="aP"/><g id="p"><use transform="matrix(0.06172839506172839,0,0,0.06172839506172839,0,0)" xlink:href="#aP"/><use transform="matrix(0.06172839506172839,0,0,0.06172839506172839,15.987654320987653,0)" xlink:href="#an"/><use transform="matrix(0.06172839506172839,0,0,0.06172839506172839,28.333333333333332,0)" xlink:href="#av"/><use transform="matrix(0.06172839506172839,0,0,0.06172839506172839,40.67901234567901,0)" xlink:href="#au"/><use transform="matrix(0.06172839506172839,0,0,0.06172839506172839,51.79012345679013,0)" xlink:href="#at"/><use transform="matrix(0.06172839506172839,0,0,0.06172839506172839,64.13580246913581,0)" xlink:href="#av"/><use transform="matrix(0.06172839506172839,0,0,0.06172839506172839,76.4814814814815,0)" xlink:href="#aD"/></g><path d="M134-131c28 9 52 24 51 62-1 50-34 73-85 73S17-19 16-69c0-36 21-54 49-61-75-25-45-126 34-121 46 3 78 18 79 63 0 33-17 51-44 57zm-34-11c31 1 46-15 46-44 0-28-17-43-47-42-29 0-46 13-45 42 1 28 16 44 46 44zm1 122c35 0 51-18 51-52 0-30-18-46-53-46-33 0-51 17-51 47 0 34 19 51 53 51" id="aQ"/><g id="q"><use transform="matrix(0.06172839506172839,0,0,0.06172839506172839,0,0)" xlink:href="#aQ"/><use transform="matrix(0.06172839506172839,0,0,0.06172839506172839,12.345679012345679,0)" xlink:href="#ar"/></g><g id="r"><use transform="matrix(0.06172839506172839,0,0,0.06172839506172839,0,0)" xlink:href="#aL"/><use transform="matrix(0.06172839506172839,0,0,0.06172839506172839,6.172839506172839,0)" xlink:href="#aM"/></g><path d="M143 0L79-87 56-68V0H24v-261h32v163l83-92h37l-77 82L181 0h-38" id="aR"/><g id="s"><use transform="matrix(0.06172839506172839,0,0,0.06172839506172839,0,0)" xlink:href="#aD"/><use transform="matrix(0.06172839506172839,0,0,0.06172839506172839,6.172839506172839,0)" xlink:href="#an"/><use transform="matrix(0.06172839506172839,0,0,0.06172839506172839,18.51851851851852,0)" xlink:href="#aR"/><use transform="matrix(0.06172839506172839,0,0,0.06172839506172839,29.62962962962963,0)" xlink:href="#at"/><use transform="matrix(0.06172839506172839,0,0,0.06172839506172839,41.97530864197531,0)" xlink:href="#av"/><use transform="matrix(0.06172839506172839,0,0,0.06172839506172839,54.32098765432099,0)" xlink:href="#aI"/></g><g id="t"><use transform="matrix(0.06172839506172839,0,0,0.06172839506172839,0,0)" xlink:href="#aO"/><use transform="matrix(0.06172839506172839,0,0,0.06172839506172839,14.814814814814813,0)" xlink:href="#aG"/><use transform="matrix(0.06172839506172839,0,0,0.06172839506172839,25.925925925925924,0)" xlink:href="#aG"/><use transform="matrix(0.06172839506172839,0,0,0.06172839506172839,37.03703703703704,0)" xlink:href="#at"/><use transform="matrix(0.06172839506172839,0,0,0.06172839506172839,49.382716049382715,0)" xlink:href="#au"/><use transform="matrix(0.06172839506172839,0,0,0.06172839506172839,60.49382716049382,0)" xlink:href="#au"/></g><g id="u"><use transform="matrix(0.06172839506172839,0,0,0.06172839506172839,0,0)" xlink:href="#aD"/><use transform="matrix(0.06172839506172839,0,0,0.06172839506172839,6.172839506172839,0)" xlink:href="#an"/><use transform="matrix(0.06172839506172839,0,0,0.06172839506172839,18.51851851851852,0)" xlink:href="#aR"/><use transform="matrix(0.06172839506172839,0,0,0.06172839506172839,29.62962962962963,0)" xlink:href="#at"/><use transform="matrix(0.06172839506172839,0,0,0.06172839506172839,41.97530864197531,0)" xlink:href="#av"/></g><path d="M101-251c82-7 93 87 43 132L82-64C71-53 59-42 53-27h129V0H18c2-99 128-94 128-182 0-28-16-43-45-43s-46 15-49 41l-32-3c6-41 34-60 81-64" id="aS"/><g id="v"><use transform="matrix(0.06172839506172839,0,0,0.06172839506172839,0,0)" xlink:href="#aS"/><use transform="matrix(0.06172839506172839,0,0,0.06172839506172839,12.345679012345679,0)" xlink:href="#ar"/></g><g id="w"><use transform="matrix(0.06172839506172839,0,0,0.06172839506172839,0,0)" xlink:href="#aP"/><use transform="matrix(0.06172839506172839,0,0,0.06172839506172839,15.987654320987653,0)" xlink:href="#ay"/><use transform="matrix(0.06172839506172839,0,0,0.06172839506172839,23.333333333333332,0)" xlink:href="#at"/><use transform="matrix(0.06172839506172839,0,0,0.06172839506172839,35.67901234567901,0)" xlink:href="#aH"/><use transform="matrix(0.06172839506172839,0,0,0.06172839506172839,48.02469135802469,0)" xlink:href="#at"/><use transform="matrix(0.06172839506172839,0,0,0.06172839506172839,60.37037037037037,0)" xlink:href="#av"/><use transform="matrix(0.06172839506172839,0,0,0.06172839506172839,72.71604938271605,0)" xlink:href="#aD"/><use transform="matrix(0.06172839506172839,0,0,0.06172839506172839,78.88888888888889,0)" xlink:href="#az"/><use transform="matrix(0.06172839506172839,0,0,0.06172839506172839,83.76543209876543,0)" xlink:href="#aB"/><use transform="matrix(0.06172839506172839,0,0,0.06172839506172839,96.11111111111111,0)" xlink:href="#aJ"/></g><path d="M145-31C134-9 116 4 85 4 32 4 16-35 15-94c0-59 17-99 70-100 32-1 48 14 60 33 0-11-1-24 2-32h30l-1 268h-32zM93-21c41 0 51-33 51-76s-8-73-50-73c-40 0-46 35-46 75s5 74 45 74" id="aT"/><g id="x"><use transform="matrix(0.06172839506172839,0,0,0.06172839506172839,0,0)" xlink:href="#ay"/><use transform="matrix(0.06172839506172839,0,0,0.06172839506172839,7.345679012345679,0)" xlink:href="#at"/><use transform="matrix(0.06172839506172839,0,0,0.06172839506172839,19.691358024691358,0)" xlink:href="#aT"/><use transform="matrix(0.06172839506172839,0,0,0.06172839506172839,32.03703703703704,0)" xlink:href="#aC"/><use transform="matrix(0.06172839506172839,0,0,0.06172839506172839,44.382716049382715,0)" xlink:href="#at"/><use transform="matrix(0.06172839506172839,0,0,0.06172839506172839,56.72839506172839,0)" xlink:href="#au"/><use transform="matrix(0.06172839506172839,0,0,0.06172839506172839,67.8395061728395,0)" xlink:href="#aD"/></g><path d="M118-107v75H92v-75H18v-26h74v-75h26v75h74v26h-74" id="aU"/><use transform="matrix(0.06172839506172839,0,0,0.06172839506172839,0,0)" xlink:href="#aU" id="y"/><path d="M-5 72V49h209v23H-5" id="aV"/><path d="M210-169c-67 3-38 105-44 169h-31v-121c0-29-5-50-35-48C34-165 62-65 56 0H25l-1-190h30c1 10-1 24 2 32 10-44 99-50 107 0 11-21 27-35 58-36 85-2 47 119 55 194h-31v-121c0-29-5-49-35-48" id="aW"/><g id="z"><use transform="matrix(0.06172839506172839,0,0,0.06172839506172839,0,0)" xlink:href="#ay"/><use transform="matrix(0.06172839506172839,0,0,0.06172839506172839,7.345679012345679,0)" xlink:href="#at"/><use transform="matrix(0.06172839506172839,0,0,0.06172839506172839,19.691358024691358,0)" xlink:href="#au"/><use transform="matrix(0.06172839506172839,0,0,0.06172839506172839,30.80246913580247,0)" xlink:href="#ao"/><use transform="matrix(0.06172839506172839,0,0,0.06172839506172839,43.148148148148145,0)" xlink:href="#an"/><use transform="matrix(0.06172839506172839,0,0,0.06172839506172839,55.49382716049382,0)" xlink:href="#av"/><use transform="matrix(0.06172839506172839,0,0,0.06172839506172839,67.8395061728395,0)" xlink:href="#au"/><use transform="matrix(0.06172839506172839,0,0,0.06172839506172839,78.95061728395062,0)" xlink:href="#at"/><use transform="matrix(0.06172839506172839,0,0,0.06172839506172839,91.2962962962963,0)" xlink:href="#aV"/><use transform="matrix(0.06172839506172839,0,0,0.06172839506172839,103.64197530864199,0)" xlink:href="#aW"/><use transform="matrix(0.06172839506172839,0,0,0.06172839506172839,122.09876543209877,0)" xlink:href="#an"/><use transform="matrix(0.06172839506172839,0,0,0.06172839506172839,134.44444444444446,0)" xlink:href="#aH"/><use transform="matrix(0.06172839506172839,0,0,0.06172839506172839,146.79012345679013,0)" xlink:href="#at"/></g><g id="A"><use transform="matrix(0.06172839506172839,0,0,0.06172839506172839,0,0)" xlink:href="#ap"/><use transform="matrix(0.06172839506172839,0,0,0.06172839506172839,12.345679012345679,0)" xlink:href="#ar"/><use transform="matrix(0.06172839506172839,0,0,0.06172839506172839,18.51851851851852,0)" xlink:href="#aP"/><use transform="matrix(0.06172839506172839,0,0,0.06172839506172839,34.50617283950617,0)" xlink:href="#aJ"/><use transform="matrix(0.06172839506172839,0,0,0.06172839506172839,39.382716049382715,0)" xlink:href="#az"/><use transform="matrix(0.06172839506172839,0,0,0.06172839506172839,44.25925925925926,0)" xlink:href="#aG"/><use transform="matrix(0.06172839506172839,0,0,0.06172839506172839,55.37037037037037,0)" xlink:href="#aR"/></g><path d="M177-190C167-65 218 103 67 71c-23-6-38-20-44-43l32-5c15 47 100 32 89-28v-30C133-14 115 1 83 1 29 1 15-40 15-95c0-56 16-97 71-98 29-1 48 16 59 35 1-10 0-23 2-32h30zM94-22c36 0 50-32 50-73 0-42-14-75-50-75-39 0-46 34-46 75s6 73 46 73" id="aX"/><g id="B"><use transform="matrix(0.06172839506172839,0,0,0.06172839506172839,0,0)" xlink:href="#am"/><use transform="matrix(0.06172839506172839,0,0,0.06172839506172839,12.345679012345679,0)" xlink:href="#an"/><use transform="matrix(0.06172839506172839,0,0,0.06172839506172839,24.691358024691358,0)" xlink:href="#aX"/><use transform="matrix(0.06172839506172839,0,0,0.06172839506172839,37.03703703703704,0)" xlink:href="#az"/><use transform="matrix(0.06172839506172839,0,0,0.06172839506172839,41.91358024691358,0)" xlink:href="#av"/></g><path d="M99-251c64 0 84 50 84 122C183-37 130 33 47-8c-14-7-20-23-25-40l30-5c6 39 69 39 84 7 9-19 16-44 16-74-10 22-31 35-62 35-49 0-73-33-73-83 0-54 28-83 82-83zm-1 141c31-1 51-18 51-49 0-36-14-67-51-67-34 0-49 23-49 58 0 34 15 58 49 58" id="aY"/><g id="C"><use transform="matrix(0.06172839506172839,0,0,0.06172839506172839,0,0)" xlink:href="#aY"/><use transform="matrix(0.06172839506172839,0,0,0.06172839506172839,12.345679012345679,0)" xlink:href="#ar"/></g><g id="D"><use transform="matrix(0.06172839506172839,0,0,0.06172839506172839,0,0)" xlink:href="#as"/><use transform="matrix(0.06172839506172839,0,0,0.06172839506172839,15.987654320987653,0)" xlink:href="#at"/><use transform="matrix(0.06172839506172839,0,0,0.06172839506172839,28.333333333333332,0)" xlink:href="#aT"/><use transform="matrix(0.06172839506172839,0,0,0.06172839506172839,40.67901234567901,0)" xlink:href="#aC"/><use transform="matrix(0.06172839506172839,0,0,0.06172839506172839,53.02469135802469,0)" xlink:href="#at"/><use transform="matrix(0.06172839506172839,0,0,0.06172839506172839,65.37037037037037,0)" xlink:href="#au"/><use transform="matrix(0.06172839506172839,0,0,0.06172839506172839,76.48148148148148,0)" xlink:href="#aD"/></g><g id="E"><use transform="matrix(0.06172839506172839,0,0,0.06172839506172839,0,0)" xlink:href="#aC"/><use transform="matrix(0.06172839506172839,0,0,0.06172839506172839,12.345679012345679,0)" xlink:href="#au"/><use transform="matrix(0.06172839506172839,0,0,0.06172839506172839,23.45679012345679,0)" xlink:href="#at"/><use transform="matrix(0.06172839506172839,0,0,0.06172839506172839,35.80246913580247,0)" xlink:href="#ay"/></g><g id="F"><use transform="matrix(0.06172839506172839,0,0,0.06172839506172839,0,0)" xlink:href="#aH"/><use transform="matrix(0.06172839506172839,0,0,0.06172839506172839,12.345679012345679,0)" xlink:href="#aB"/><use transform="matrix(0.06172839506172839,0,0,0.06172839506172839,24.691358024691358,0)" xlink:href="#aD"/><use transform="matrix(0.06172839506172839,0,0,0.06172839506172839,30.864197530864196,0)" xlink:href="#aB"/></g><path d="M206 0h-36l-40-164L89 0H53L-1-190h32L70-26l43-164h34l41 164 42-164h31" id="aZ"/><g id="G"><use transform="matrix(0.06172839506172839,0,0,0.06172839506172839,0,0)" xlink:href="#aZ"/><use transform="matrix(0.06172839506172839,0,0,0.06172839506172839,15.987654320987653,0)" xlink:href="#az"/><use transform="matrix(0.06172839506172839,0,0,0.06172839506172839,20.864197530864196,0)" xlink:href="#aD"/><use transform="matrix(0.06172839506172839,0,0,0.06172839506172839,27.037037037037035,0)" xlink:href="#aE"/></g><path d="M54-142c48-35 137-8 131 61C196 18 31 33 14-55l32-4c7 23 22 37 52 37 35-1 51-22 54-58 4-55-73-65-99-34H22l8-134h141v27H59" id="ba"/><g id="H"><use transform="matrix(0.06172839506172839,0,0,0.06172839506172839,0,0)" xlink:href="#ba"/><use transform="matrix(0.06172839506172839,0,0,0.06172839506172839,12.345679012345679,0)" xlink:href="#ar"/></g><path d="M185-189c-5-48-123-54-124 2 14 75 158 14 163 119 3 78-121 87-175 55-17-10-28-26-33-46l33-7c5 56 141 63 141-1 0-78-155-14-162-118-5-82 145-84 179-34 5 7 8 16 11 25" id="bb"/><path d="M16-82v-28h88v28H16" id="bc"/><g id="I"><use transform="matrix(0.07407407407407407,0,0,0.07407407407407407,0,0)" xlink:href="#bb"/><use transform="matrix(0.06049382716049383,0,0,0.06049382716049383,17.77777777777778,0)" xlink:href="#az"/><use transform="matrix(0.06049382716049383,0,0,0.06049382716049383,22.556790123456793,0)" xlink:href="#av"/><use transform="matrix(0.06049382716049383,0,0,0.06049382716049383,34.65555555555556,0)" xlink:href="#aX"/><use transform="matrix(0.06049382716049383,0,0,0.06049382716049383,46.754320987654324,0)" xlink:href="#aJ"/><use transform="matrix(0.06049382716049383,0,0,0.06049382716049383,51.53333333333334,0)" xlink:href="#at"/><use transform="matrix(0.06049382716049383,0,0,0.06049382716049383,63.6320987654321,0)" xlink:href="#bc"/><use transform="matrix(0.06049382716049383,0,0,0.06049382716049383,70.83086419753087,0)" xlink:href="#aC"/><use transform="matrix(0.06049382716049383,0,0,0.06049382716049383,82.92962962962963,0)" xlink:href="#au"/><use transform="matrix(0.06049382716049383,0,0,0.06049382716049383,93.81851851851852,0)" xlink:href="#at"/></g><g id="J"><use transform="matrix(0.06049382716049383,0,0,0.06049382716049383,0,0)" xlink:href="#aB"/><use transform="matrix(0.06049382716049383,0,0,0.06049382716049383,12.098765432098766,0)" xlink:href="#aC"/><use transform="matrix(0.06049382716049383,0,0,0.06049382716049383,24.19753086419753,0)" xlink:href="#aD"/><use transform="matrix(0.06049382716049383,0,0,0.06049382716049383,30.246913580246915,0)" xlink:href="#aE"/><use transform="matrix(0.06049382716049383,0,0,0.06049382716049383,42.345679012345684,0)" xlink:href="#an"/><use transform="matrix(0.06049382716049383,0,0,0.06049382716049383,54.44444444444445,0)" xlink:href="#ay"/><use transform="matrix(0.06049382716049383,0,0,0.06049382716049383,61.64320987654322,0)" xlink:href="#az"/><use transform="matrix(0.06049382716049383,0,0,0.06049382716049383,66.42222222222223,0)" xlink:href="#aF"/><use transform="matrix(0.06049382716049383,0,0,0.06049382716049383,77.31111111111112,0)" xlink:href="#aB"/><use transform="matrix(0.06049382716049383,0,0,0.06049382716049383,89.40987654320989,0)" xlink:href="#aD"/><use transform="matrix(0.06049382716049383,0,0,0.06049382716049383,95.45925925925927,0)" xlink:href="#az"/><use transform="matrix(0.06049382716049383,0,0,0.06049382716049383,100.23827160493828,0)" xlink:href="#an"/><use transform="matrix(0.06049382716049383,0,0,0.06049382716049383,112.33703703703705,0)" xlink:href="#av"/></g><g id="K"><use transform="matrix(0.06049382716049383,0,0,0.06049382716049383,0,0)" xlink:href="#aG"/><use transform="matrix(0.06049382716049383,0,0,0.06049382716049383,10.88888888888889,0)" xlink:href="#an"/><use transform="matrix(0.06049382716049383,0,0,0.06049382716049383,22.987654320987655,0)" xlink:href="#aH"/><use transform="matrix(0.06049382716049383,0,0,0.06049382716049383,35.08641975308642,0)" xlink:href="#at"/><use transform="matrix(0.06049382716049383,0,0,0.06049382716049383,47.18518518518518,0)" xlink:href="#aI"/></g><g id="L"><use transform="matrix(0.06049382716049383,0,0,0.06049382716049383,0,0)" xlink:href="#aL"/><use transform="matrix(0.06049382716049383,0,0,0.06049382716049383,6.049382716049383,0)" xlink:href="#aM"/></g><g id="M"><use transform="matrix(0.06049382716049383,0,0,0.06049382716049383,0,0)" xlink:href="#aD"/><use transform="matrix(0.06049382716049383,0,0,0.06049382716049383,6.049382716049383,0)" xlink:href="#an"/><use transform="matrix(0.06049382716049383,0,0,0.06049382716049383,18.14814814814815,0)" xlink:href="#aR"/><use transform="matrix(0.06049382716049383,0,0,0.06049382716049383,29.037037037037038,0)" xlink:href="#at"/><use transform="matrix(0.06049382716049383,0,0,0.06049382716049383,41.135802469135804,0)" xlink:href="#av"/><use transform="matrix(0.06049382716049383,0,0,0.06049382716049383,53.23456790123457,0)" xlink:href="#aI"/></g><g id="N"><use transform="matrix(0.06049382716049383,0,0,0.06049382716049383,0,0)" xlink:href="#aB"/><use transform="matrix(0.06049382716049383,0,0,0.06049382716049383,12.098765432098766,0)" xlink:href="#aG"/><use transform="matrix(0.06049382716049383,0,0,0.06049382716049383,22.987654320987655,0)" xlink:href="#aG"/><use transform="matrix(0.06049382716049383,0,0,0.06049382716049383,33.876543209876544,0)" xlink:href="#at"/><use transform="matrix(0.06049382716049383,0,0,0.06049382716049383,45.97530864197531,0)" xlink:href="#au"/><use transform="matrix(0.06049382716049383,0,0,0.06049382716049383,56.8641975308642,0)" xlink:href="#au"/></g><g id="O"><use transform="matrix(0.06049382716049383,0,0,0.06049382716049383,0,0)" xlink:href="#aD"/><use transform="matrix(0.06049382716049383,0,0,0.06049382716049383,6.049382716049383,0)" xlink:href="#an"/><use transform="matrix(0.06049382716049383,0,0,0.06049382716049383,18.14814814814815,0)" xlink:href="#aR"/><use transform="matrix(0.06049382716049383,0,0,0.06049382716049383,29.037037037037038,0)" xlink:href="#at"/><use transform="matrix(0.06049382716049383,0,0,0.06049382716049383,41.135802469135804,0)" xlink:href="#av"/></g><path d="M126-127c33 6 58 20 58 59 0 88-139 92-164 29-3-8-5-16-6-25l32-3c6 27 21 44 54 44 32 0 52-15 52-46 0-38-36-46-79-43v-28c39 1 72-4 72-42 0-27-17-43-46-43-28 0-47 15-49 41l-32-3c6-42 35-63 81-64 48-1 79 21 79 65 0 36-21 52-52 59" id="bd"/><g id="P"><use transform="matrix(0.06172839506172839,0,0,0.06172839506172839,0,0)" xlink:href="#bd"/><use transform="matrix(0.06172839506172839,0,0,0.06172839506172839,12.345679012345679,0)" xlink:href="#ar"/></g><g id="Q"><use transform="matrix(0.06172839506172839,0,0,0.06172839506172839,0,0)" xlink:href="#as"/><use transform="matrix(0.06172839506172839,0,0,0.06172839506172839,15.987654320987653,0)" xlink:href="#at"/><use transform="matrix(0.06172839506172839,0,0,0.06172839506172839,28.333333333333332,0)" xlink:href="#aH"/><use transform="matrix(0.06172839506172839,0,0,0.06172839506172839,40.67901234567901,0)" xlink:href="#az"/><use transform="matrix(0.06172839506172839,0,0,0.06172839506172839,45.55555555555556,0)" xlink:href="#ay"/><use transform="matrix(0.06172839506172839,0,0,0.06172839506172839,52.901234567901234,0)" xlink:href="#at"/><use transform="matrix(0.06172839506172839,0,0,0.06172839506172839,65.24691358024691,0)" xlink:href="#aG"/><use transform="matrix(0.06172839506172839,0,0,0.06172839506172839,76.35802469135803,0)" xlink:href="#aD"/></g><g id="R"><use transform="matrix(0.06172839506172839,0,0,0.06172839506172839,0,0)" xlink:href="#aD"/><use transform="matrix(0.06172839506172839,0,0,0.06172839506172839,6.172839506172839,0)" xlink:href="#an"/></g><g id="S"><use transform="matrix(0.06172839506172839,0,0,0.06172839506172839,0,0)" xlink:href="#aJ"/><use transform="matrix(0.06172839506172839,0,0,0.06172839506172839,4.876543209876543,0)" xlink:href="#an"/><use transform="matrix(0.06172839506172839,0,0,0.06172839506172839,17.22222222222222,0)" xlink:href="#aX"/><use transform="matrix(0.06172839506172839,0,0,0.06172839506172839,29.5679012345679,0)" xlink:href="#az"/><use transform="matrix(0.06172839506172839,0,0,0.06172839506172839,34.44444444444444,0)" xlink:href="#av"/></g><path d="M0 4l72-265h28L28 4H0" id="be"/><use transform="matrix(0.06172839506172839,0,0,0.06172839506172839,0,0)" xlink:href="#be" id="T"/><g id="U"><use transform="matrix(0.06172839506172839,0,0,0.06172839506172839,0,0)" xlink:href="#ao"/><use transform="matrix(0.06172839506172839,0,0,0.06172839506172839,12.345679012345679,0)" xlink:href="#ay"/><use transform="matrix(0.06172839506172839,0,0,0.06172839506172839,19.691358024691358,0)" xlink:href="#an"/><use transform="matrix(0.06172839506172839,0,0,0.06172839506172839,32.03703703703704,0)" xlink:href="#aW"/><use transform="matrix(0.06172839506172839,0,0,0.06172839506172839,50.49382716049382,0)" xlink:href="#aD"/></g><path fill="#3a414a" d="M238-95c0 69-44 99-111 99C63 4 22-25 22-93v-155h51v151c-1 38 19 59 55 60 90 1 49-130 58-211h52v153" id="bf"/><path fill="#3a414a" d="M137-138c1-29-70-34-71-4 15 46 118 7 119 86 1 83-164 76-172 9l43-7c4 19 20 25 44 25 33 8 57-30 24-41C81-84 22-81 20-136c-2-80 154-74 161-7" id="bg"/><path fill="#3a414a" d="M185-48c-13 30-37 53-82 52C43 2 14-33 14-96s30-98 90-98c62 0 83 45 84 108H66c0 31 8 55 39 56 18 0 30-7 34-22zm-45-69c5-46-57-63-70-21-2 6-4 13-4 21h74" id="bh"/><path fill="#3a414a" d="M135-150c-39-12-60 13-60 57V0H25l-1-190h47c2 13-1 29 3 40 6-28 27-53 61-41v41" id="bi"/><g id="V"><use transform="matrix(0.08024691358024691,0,0,0.08024691358024691,0,0)" xlink:href="#bf"/><use transform="matrix(0.08024691358024691,0,0,0.08024691358024691,20.78395061728395,0)" xlink:href="#bg"/><use transform="matrix(0.08024691358024691,0,0,0.08024691358024691,36.83333333333333,0)" xlink:href="#bh"/><use transform="matrix(0.08024691358024691,0,0,0.08024691358024691,52.8827160493827,0)" xlink:href="#bi"/></g><path fill="#3a414a" d="M275 0h-61l-44-196L126 0H64L0-248h53L97-49l45-199h58l43 199 44-199h52" id="bj"/><path fill="#3a414a" d="M135-194c52 0 70 43 70 98 0 56-19 99-73 100-30 1-46-15-58-35L72 0H24l1-261h50v104c11-23 29-37 60-37zM114-30c31 0 40-27 40-66 0-37-7-63-39-63s-41 28-41 65c0 36 8 64 40 64" id="bk"/><g id="W"><use transform="matrix(0.08024691358024691,0,0,0.08024691358024691,0,0)" xlink:href="#bj"/><use transform="matrix(0.08024691358024691,0,0,0.08024691358024691,26.641975308641975,0)" xlink:href="#bh"/><use transform="matrix(0.08024691358024691,0,0,0.08024691358024691,42.691358024691354,0)" xlink:href="#bk"/></g><path fill="#3a414a" d="M199 0l-22-63H83L61 0H9l90-248h61L250 0h-51zm-33-102l-36-108c-10 38-24 72-36 108h72" id="bl"/><path fill="#3a414a" d="M135-194c53 0 70 44 70 98 0 56-19 98-73 100-31 1-45-17-59-34 3 33 2 69 2 105H25l-1-265h48c2 10 0 23 3 31 11-24 29-35 60-35zM114-30c33 0 39-31 40-66 0-38-9-64-40-64-56 0-55 130 0 130" id="bm"/><g id="X"><use transform="matrix(0.08024691358024691,0,0,0.08024691358024691,0,0)" xlink:href="#bl"/><use transform="matrix(0.08024691358024691,0,0,0.08024691358024691,20.78395061728395,0)" xlink:href="#bm"/><use transform="matrix(0.08024691358024691,0,0,0.08024691358024691,38.358024691358025,0)" xlink:href="#bm"/></g><path fill="#3a414a" d="M85 4C-2 5 27-109 22-190h50c7 57-23 150 33 157 60-5 35-97 40-157h50l1 190h-47c-2-12 1-28-3-38-12 25-28 42-61 42" id="bn"/><path fill="#3a414a" d="M115-3C79 11 28 4 28-45v-112H4v-33h27l15-45h31v45h36v33H77v99c-1 23 16 31 38 25v30" id="bo"/><path fill="#3a414a" d="M114-157C55-157 80-60 75 0H25v-261h50l-1 109c12-26 28-41 61-42 86-1 58 113 63 194h-50c-7-57 23-157-34-157" id="bp"/><path fill="#3a414a" d="M101-251c68 0 84 54 84 127C185-50 166 4 99 4S15-52 14-124c-1-75 17-127 87-127zm-1 216c37-5 36-46 36-89s4-89-36-89c-39 0-36 45-36 89 0 43-3 85 36 89" id="bq"/><g id="Y"><use transform="matrix(0.07407407407407407,0,0,0.07407407407407407,0,0)" xlink:href="#bl"/><use transform="matrix(0.07407407407407407,0,0,0.07407407407407407,19.185185185185183,0)" xlink:href="#bn"/><use transform="matrix(0.07407407407407407,0,0,0.07407407407407407,35.407407407407405,0)" xlink:href="#bo"/><use transform="matrix(0.07407407407407407,0,0,0.07407407407407407,44.22222222222222,0)" xlink:href="#bp"/><use transform="matrix(0.07407407407407407,0,0,0.07407407407407407,60.44444444444444,0)" xlink:href="#bq"/></g><path fill="#3a414a" d="M110-194c64 0 96 36 96 99 0 64-35 99-97 99-61 0-95-36-95-99 0-62 34-99 96-99zm-1 164c35 0 45-28 45-65 0-40-10-65-43-65-34 0-45 26-45 65 0 36 10 65 43 65" id="br"/><path fill="#3a414a" d="M25-224v-37h50v37H25zM25 0v-190h50V0H25" id="bs"/><path fill="#3a414a" d="M12 0v-35l95-120H19v-35h142v35L67-36h103V0H12" id="bt"/><path fill="#3a414a" d="M133-34C117-15 103 5 69 4 32 3 11-16 11-54c-1-60 55-63 116-61 1-26-3-47-28-47-18 1-26 9-28 27l-52-2c7-38 36-58 82-57s74 22 75 68l1 82c-1 14 12 18 25 15v27c-30 8-71 5-69-32zm-48 3c29 0 43-24 42-57-32 0-66-3-65 30 0 17 8 27 23 27" id="bu"/><path fill="#3a414a" d="M135-194c87-1 58 113 63 194h-50c-7-57 23-157-34-157-59 0-34 97-39 157H25l-1-190h47c2 12-1 28 3 38 12-26 28-41 61-42" id="bv"/><g id="Z"><use transform="matrix(0.07407407407407407,0,0,0.07407407407407407,0,0)" xlink:href="#bl"/><use transform="matrix(0.07407407407407407,0,0,0.07407407407407407,19.185185185185183,0)" xlink:href="#bn"/><use transform="matrix(0.07407407407407407,0,0,0.07407407407407407,35.407407407407405,0)" xlink:href="#bo"/><use transform="matrix(0.07407407407407407,0,0,0.07407407407407407,44.22222222222222,0)" xlink:href="#bp"/><use transform="matrix(0.07407407407407407,0,0,0.07407407407407407,60.44444444444444,0)" xlink:href="#br"/><use transform="matrix(0.07407407407407407,0,0,0.07407407407407407,76.66666666666666,0)" xlink:href="#bi"/><use transform="matrix(0.07407407407407407,0,0,0.07407407407407407,87.03703703703704,0)" xlink:href="#bs"/><use transform="matrix(0.07407407407407407,0,0,0.07407407407407407,94.44444444444443,0)" xlink:href="#bt"/><use transform="matrix(0.07407407407407407,0,0,0.07407407407407407,107.77777777777776,0)" xlink:href="#bu"/><use transform="matrix(0.07407407407407407,0,0,0.07407407407407407,122.59259259259257,0)" xlink:href="#bo"/><use transform="matrix(0.07407407407407407,0,0,0.07407407407407407,131.4074074074074,0)" xlink:href="#bs"/><use transform="matrix(0.07407407407407407,0,0,0.07407407407407407,138.8148148148148,0)" xlink:href="#br"/><use transform="matrix(0.07407407407407407,0,0,0.07407407407407407,155.03703703703704,0)" xlink:href="#bv"/></g><path fill="#3a414a" d="M128 0H69L1-190h53L99-40l48-150h52" id="bw"/><g id="aa"><use transform="matrix(0.07407407407407407,0,0,0.07407407407407407,0,0)" xlink:href="#bg"/><use transform="matrix(0.07407407407407407,0,0,0.07407407407407407,14.814814814814813,0)" xlink:href="#bh"/><use transform="matrix(0.07407407407407407,0,0,0.07407407407407407,29.629629629629626,0)" xlink:href="#bi"/><use transform="matrix(0.07407407407407407,0,0,0.07407407407407407,40,0)" xlink:href="#bw"/><use transform="matrix(0.07407407407407407,0,0,0.07407407407407407,54.81481481481481,0)" xlink:href="#bh"/><use transform="matrix(0.07407407407407407,0,0,0.07407407407407407,69.62962962962962,0)" xlink:href="#bi"/></g><path fill="#3a414a" d="M24-248c93 1 206-16 204 79-1 75-69 88-152 82V0H24v-248zm52 121c47 0 100 7 100-41 0-47-54-39-100-39v80" id="bx"/><path fill="#3a414a" d="M24 0v-248h52V0H24" id="by"/><g id="ab"><use transform="matrix(0.07407407407407407,0,0,0.07407407407407407,0,0)" xlink:href="#bl"/><use transform="matrix(0.07407407407407407,0,0,0.07407407407407407,19.185185185185183,0)" xlink:href="#bx"/><use transform="matrix(0.07407407407407407,0,0,0.07407407407407407,36.96296296296296,0)" xlink:href="#by"/></g><path d="M110-160c48 1 74 30 74 79 0 53-28 85-80 85-65 0-83-55-86-122-5-90 50-162 133-122 14 7 22 21 27 39l-31 6c-5-40-67-38-82-6-9 19-15 44-15 74 11-20 30-34 60-33zm-7 138c34 0 49-23 49-58s-16-56-50-56c-29 0-50 16-49 49 1 36 15 65 50 65" id="bz"/><g id="ac"><use transform="matrix(0.06172839506172839,0,0,0.06172839506172839,0,0)" xlink:href="#bz"/><use transform="matrix(0.06172839506172839,0,0,0.06172839506172839,12.345679012345679,0)" xlink:href="#ar"/></g><g id="ad"><use transform="matrix(0.06049382716049383,0,0,0.06049382716049383,0,0)" xlink:href="#aO"/><use transform="matrix(0.06049382716049383,0,0,0.06049382716049383,14.518518518518519,0)" xlink:href="#aC"/><use transform="matrix(0.06049382716049383,0,0,0.06049382716049383,26.617283950617285,0)" xlink:href="#aD"/><use transform="matrix(0.06049382716049383,0,0,0.06049382716049383,32.66666666666667,0)" xlink:href="#aE"/><use transform="matrix(0.06049382716049383,0,0,0.06049382716049383,44.76543209876544,0)" xlink:href="#an"/><use transform="matrix(0.06049382716049383,0,0,0.06049382716049383,56.8641975308642,0)" xlink:href="#ay"/><use transform="matrix(0.06049382716049383,0,0,0.06049382716049383,64.06296296296297,0)" xlink:href="#az"/><use transform="matrix(0.06049382716049383,0,0,0.06049382716049383,68.84197530864198,0)" xlink:href="#aF"/><use transform="matrix(0.06049382716049383,0,0,0.06049382716049383,79.73086419753086,0)" xlink:href="#aB"/><use transform="matrix(0.06049382716049383,0,0,0.06049382716049383,91.82962962962964,0)" xlink:href="#aD"/><use transform="matrix(0.06049382716049383,0,0,0.06049382716049383,97.87901234567902,0)" xlink:href="#az"/><use transform="matrix(0.06049382716049383,0,0,0.06049382716049383,102.65802469135802,0)" xlink:href="#an"/><use transform="matrix(0.06049382716049383,0,0,0.06049382716049383,114.7567901234568,0)" xlink:href="#av"/></g><g id="ae"><use transform="matrix(0.06049382716049383,0,0,0.06049382716049383,0,0)" xlink:href="#aP"/><use transform="matrix(0.06049382716049383,0,0,0.06049382716049383,15.667901234567902,0)" xlink:href="#aJ"/><use transform="matrix(0.06049382716049383,0,0,0.06049382716049383,20.446913580246914,0)" xlink:href="#az"/><use transform="matrix(0.06049382716049383,0,0,0.06049382716049383,25.225925925925928,0)" xlink:href="#at"/><use transform="matrix(0.06049382716049383,0,0,0.06049382716049383,37.324691358024694,0)" xlink:href="#av"/><use transform="matrix(0.06049382716049383,0,0,0.06049382716049383,49.42345679012346,0)" xlink:href="#aD"/></g><g id="af"><use transform="matrix(0.06049382716049383,0,0,0.06049382716049383,0,0)" xlink:href="#aL"/><use transform="matrix(0.06049382716049383,0,0,0.06049382716049383,6.049382716049383,0)" xlink:href="#aM"/><use transform="matrix(0.06049382716049383,0,0,0.06049382716049383,21.717283950617286,0)" xlink:href="#aI"/></g><g id="ag"><use transform="matrix(0.06049382716049383,0,0,0.06049382716049383,0,0)" xlink:href="#bb"/><use transform="matrix(0.06049382716049383,0,0,0.06049382716049383,14.518518518518519,0)" xlink:href="#at"/><use transform="matrix(0.06049382716049383,0,0,0.06049382716049383,26.617283950617285,0)" xlink:href="#aG"/><use transform="matrix(0.06049382716049383,0,0,0.06049382716049383,37.50617283950618,0)" xlink:href="#ay"/><use transform="matrix(0.06049382716049383,0,0,0.06049382716049383,44.704938271604945,0)" xlink:href="#at"/><use transform="matrix(0.06049382716049383,0,0,0.06049382716049383,56.80370370370371,0)" xlink:href="#aD"/></g><path fill="#3a414a" d="M25 0v-261h50V0H25" id="bA"/><g id="ah"><use transform="matrix(0.06172839506172839,0,0,0.06172839506172839,0,0)" xlink:href="#bj"/><use transform="matrix(0.06172839506172839,0,0,0.06172839506172839,20.925925925925924,0)" xlink:href="#bp"/><use transform="matrix(0.06172839506172839,0,0,0.06172839506172839,34.44444444444444,0)" xlink:href="#bs"/><use transform="matrix(0.06172839506172839,0,0,0.06172839506172839,40.617283950617285,0)" xlink:href="#bA"/><use transform="matrix(0.06172839506172839,0,0,0.06172839506172839,46.79012345679013,0)" xlink:href="#bh"/></g><path fill="#3a414a" d="M190-63c-7 42-38 67-86 67-59 0-84-38-90-98-12-110 154-137 174-36l-49 2c-2-19-15-32-35-32-30 0-35 28-38 64-6 74 65 87 74 30" id="bB"/><g id="ai"><use transform="matrix(0.06172839506172839,0,0,0.06172839506172839,0,0)" xlink:href="#bu"/><use transform="matrix(0.06172839506172839,0,0,0.06172839506172839,12.345679012345679,0)" xlink:href="#bB"/><use transform="matrix(0.06172839506172839,0,0,0.06172839506172839,24.691358024691358,0)" xlink:href="#bB"/><use transform="matrix(0.06172839506172839,0,0,0.06172839506172839,37.03703703703704,0)" xlink:href="#bh"/><use transform="matrix(0.06172839506172839,0,0,0.06172839506172839,49.382716049382715,0)" xlink:href="#bg"/><use transform="matrix(0.06172839506172839,0,0,0.06172839506172839,61.72839506172839,0)" xlink:href="#bg"/></g><path fill="#3a414a" d="M147 0L96-86 75-71V0H25v-261h50v150l67-79h53l-66 74L201 0h-54" id="bC"/><g id="aj"><use transform="matrix(0.06172839506172839,0,0,0.06172839506172839,0,0)" xlink:href="#bo"/><use transform="matrix(0.06172839506172839,0,0,0.06172839506172839,7.345679012345679,0)" xlink:href="#br"/><use transform="matrix(0.06172839506172839,0,0,0.06172839506172839,20.864197530864196,0)" xlink:href="#bC"/><use transform="matrix(0.06172839506172839,0,0,0.06172839506172839,33.20987654320987,0)" xlink:href="#bh"/><use transform="matrix(0.06172839506172839,0,0,0.06172839506172839,45.55555555555555,0)" xlink:href="#bv"/></g><g id="ak"><use transform="matrix(0.06172839506172839,0,0,0.06172839506172839,0,0)" xlink:href="#bs"/><use transform="matrix(0.06172839506172839,0,0,0.06172839506172839,6.172839506172839,0)" xlink:href="#bg"/></g><path fill="#3a414a" d="M88-194c31-1 46 15 58 34l-1-101h50l1 261h-48c-2-10 0-23-3-31C134-8 116 4 84 4 32 4 16-41 15-95c0-56 19-97 73-99zm17 164c33 0 40-30 41-66 1-37-9-64-41-64s-38 30-39 65c0 43 13 65 39 65" id="bD"/><g id="al"><use transform="matrix(0.06172839506172839,0,0,0.06172839506172839,0,0)" xlink:href="#bw"/><use transform="matrix(0.06172839506172839,0,0,0.06172839506172839,12.345679012345679,0)" xlink:href="#bu"/><use transform="matrix(0.06172839506172839,0,0,0.06172839506172839,24.691358024691358,0)" xlink:href="#bA"/><use transform="matrix(0.06172839506172839,0,0,0.06172839506172839,30.864197530864196,0)" xlink:href="#bs"/><use transform="matrix(0.06172839506172839,0,0,0.06172839506172839,37.03703703703704,0)" xlink:href="#bD"/></g></defs></g></svg>